<svg width="102" height="24" viewBox="0 0 102 24" fill="none" xmlns="http://www.w3.org/2000/svg">
<path d="M17.688 13.752C17.688 14.392 17.6453 14.968 17.56 15.48H4.6C4.70667 16.76 5.15467 17.7627 5.944 18.488C6.73333 19.2133 7.704 19.576 8.856 19.576C10.52 19.576 11.704 18.8613 12.408 17.432H17.24C16.728 19.1387 15.7467 20.5467 14.296 21.656C12.8453 22.744 11.064 23.288 8.952 23.288C7.24533 23.288 5.70933 22.9147 4.344 22.168C3 21.4 1.944 20.3227 1.176 18.936C0.429333 17.5493 0.056 15.9493 0.056 14.136C0.056 12.3013 0.429333 10.6907 1.176 9.304C1.92267 7.91733 2.968 6.85067 4.312 6.104C5.656 5.35733 7.20267 4.984 8.952 4.984C10.6373 4.984 12.1413 5.34667 13.464 6.072C14.808 6.79733 15.8427 7.832 16.568 9.176C17.3147 10.4987 17.688 12.024 17.688 13.752ZM13.048 12.472C13.0267 11.32 12.6107 10.4027 11.8 9.72C10.9893 9.016 9.99733 8.664 8.824 8.664C7.71467 8.664 6.776 9.00533 6.008 9.688C5.26133 10.3493 4.80267 11.2773 4.632 12.472H13.048Z" fill="#9E6EFE"/>
<path d="M34.75 0.664V4.28H25.438V10.008H32.574V13.56H25.438V23H20.958V0.664H34.75ZM42.4068 8.024C42.9828 7.08533 43.7294 6.34933 44.6468 5.816C45.5854 5.28267 46.6521 5.016 47.8468 5.016V9.72H46.6628C45.2548 9.72 44.1881 10.0507 43.4628 10.712C42.7588 11.3733 42.4068 12.5253 42.4068 14.168V23H37.9268V5.272H42.4068V8.024ZM58.7363 23.288C57.0296 23.288 55.4936 22.9147 54.1283 22.168C52.7629 21.4 51.6856 20.3227 50.8963 18.936C50.1283 17.5493 49.7443 15.9493 49.7443 14.136C49.7443 12.3227 50.1389 10.7227 50.9283 9.336C51.7389 7.94933 52.8376 6.88267 54.2243 6.136C55.6109 5.368 57.1576 4.984 58.8643 4.984C60.5709 4.984 62.1176 5.368 63.5043 6.136C64.8909 6.88267 65.9789 7.94933 66.7683 9.336C67.5789 10.7227 67.9843 12.3227 67.9843 14.136C67.9843 15.9493 67.5683 17.5493 66.7362 18.936C65.9256 20.3227 64.8163 21.4 63.4083 22.168C62.0216 22.9147 60.4643 23.288 58.7363 23.288ZM58.7363 19.384C59.5469 19.384 60.3043 19.192 61.0083 18.808C61.7336 18.4027 62.3096 17.8053 62.7363 17.016C63.1629 16.2267 63.3763 15.2667 63.3763 14.136C63.3763 12.4507 62.9283 11.16 62.0323 10.264C61.1576 9.34667 60.0803 8.888 58.8003 8.888C57.5203 8.888 56.4429 9.34667 55.5683 10.264C54.7149 11.16 54.2883 12.4507 54.2883 14.136C54.2883 15.8213 54.7043 17.1227 55.5363 18.04C56.3896 18.936 57.4563 19.384 58.7363 19.384ZM81.0945 5.016C83.2065 5.016 84.9132 5.688 86.2145 7.032C87.5158 8.35467 88.1665 10.2107 88.1665 12.6V23H83.6865V13.208C83.6865 11.8 83.3345 10.7227 82.6305 9.976C81.9265 9.208 80.9665 8.824 79.7505 8.824C78.5132 8.824 77.5318 9.208 76.8065 9.976C76.1025 10.7227 75.7505 11.8 75.7505 13.208V23H71.2705V5.272H75.7505V7.48C76.3478 6.712 77.1052 6.11467 78.0225 5.688C78.9612 5.24 79.9852 5.016 81.0945 5.016ZM97.6428 8.952V17.528C97.6428 18.1253 97.7814 18.5627 98.0588 18.84C98.3574 19.096 98.8481 19.224 99.5308 19.224H101.611V23H98.7948C95.0188 23 93.1308 21.1653 93.1308 17.496V8.952H91.0188V5.272H93.1308V0.887999H97.6428V5.272H101.611V8.952H97.6428Z" fill="#272727"/>
</svg>
